<svg width="21" height="21" viewBox="0 0 21 21" fill="none" xmlns="http://www.w3.org/2000/svg">
<path fill-rule="evenodd" clip-rule="evenodd" d="M10.5 0C4.70225 0 0 4.7005 0 10.5C0 16.2986 4.70225 21 10.5 21C16.2986 21 21 16.2986 21 10.5C21 4.7005 16.2986 0 10.5 0ZM13.321 15.6371C13.4855 15.7535 13.6973 15.7824 13.8863 15.7115C14.0744 15.6397 14.2135 15.4779 14.2555 15.2819C14.6991 13.1976 15.7754 7.92137 16.1787 6.02612C16.2094 5.88263 16.1586 5.73387 16.0466 5.6385C15.9338 5.54312 15.778 5.516 15.6398 5.56675C13.4995 6.3595 6.90812 8.83225 4.214 9.82887C4.04338 9.89275 3.93225 10.0564 3.9375 10.2375C3.94362 10.4178 4.06525 10.5744 4.24025 10.6269C5.44863 10.9882 7.03412 11.4914 7.03412 11.4914C7.03412 11.4914 7.77525 13.7296 8.16113 14.8671C8.21012 15.0106 8.32213 15.1226 8.46912 15.1611C8.617 15.1996 8.77363 15.1594 8.88387 15.0552C9.50425 14.4699 10.4633 13.5643 10.4633 13.5643C10.4633 13.5643 12.2867 14.9004 13.321 15.6371ZM7.70087 11.2079L8.55838 14.035L8.74912 12.2448C8.74912 12.2448 12.0592 9.25838 13.9475 7.5565C14.0026 7.50663 14.0096 7.42263 13.9641 7.364C13.9186 7.30538 13.8346 7.29138 13.7725 7.33162C11.585 8.72813 7.70087 11.2079 7.70087 11.2079Z" fill="#D7E0FF"/>
</svg>
