<svg width="19" height="17" viewBox="0 0 19 17" fill="none" xmlns="http://www.w3.org/2000/svg">
<path d="M17.0548 4.23211C17.0664 4.41654 17.0664 4.60098 17.0664 4.78712C17.0664 10.4588 13.1452 17 5.97518 17V16.9966C3.85712 17 1.78306 16.3319 0 15.0723C0.307983 15.1131 0.61751 15.1335 0.927808 15.1344C2.68308 15.1361 4.38818 14.4876 5.76908 13.2934C4.10104 13.2585 2.63831 12.061 2.12732 10.3126C2.71164 10.4367 3.31371 10.4112 3.88722 10.2387C2.06866 9.8341 0.760309 8.07471 0.760309 6.03144C0.760309 6.01274 0.760309 5.99489 0.760309 5.97705C1.30217 6.30937 1.90888 6.49381 2.52947 6.51421C0.816657 5.25374 0.288686 2.7447 1.32301 0.783024C3.30213 3.4646 6.22218 5.0948 9.35682 5.26734C9.04266 3.77653 9.47183 2.21433 10.4845 1.16635C12.0546 -0.458748 14.5238 -0.375453 15.9997 1.35249C16.8727 1.16295 17.7094 0.810222 18.4751 0.310454C18.1841 1.30404 17.5751 2.14804 16.7615 2.68435C17.5342 2.58406 18.2891 2.35627 19 2.00865C18.4767 2.87219 17.8175 3.62439 17.0548 4.23211Z" fill="#D7E0FF"/>
</svg>
